<svg width="15" height="12" viewBox="0 0 15 12" fill="none" xmlns="http://www.w3.org/2000/svg">
<path fill-rule="evenodd" clip-rule="evenodd" d="M12.1977 0.697502C12.4426 0.454728 12.7732 0.318095 13.118 0.317144C13.4629 0.316192 13.7942 0.450998 14.0405 0.692418C14.2867 0.933837 14.4281 1.26247 14.434 1.60727C14.4398 1.95207 14.3098 2.28533 14.0719 2.535L7.0859 11.2675C6.96584 11.3968 6.82093 11.5006 6.65983 11.5726C6.49874 11.6447 6.32478 11.6835 6.14834 11.6868C5.97191 11.69 5.79663 11.6577 5.63298 11.5917C5.46933 11.5256 5.32067 11.4273 5.1959 11.3025L0.567154 6.672C0.438202 6.55184 0.334773 6.40694 0.263037 6.24594C0.191301 6.08495 0.152728 5.91115 0.149618 5.73492C0.146509 5.55869 0.178927 5.38364 0.244939 5.22021C0.310951 5.05678 0.409204 4.90832 0.533837 4.78369C0.65847 4.65905 0.806929 4.5608 0.970358 4.49479C1.13379 4.42878 1.30884 4.39636 1.48507 4.39947C1.6613 4.40258 1.8351 4.44115 1.9961 4.51289C2.15709 4.58462 2.30199 4.68805 2.42215 4.817L6.08665 8.47975L12.1644 0.736003C12.1752 0.722446 12.1869 0.709587 12.1994 0.697502H12.1977Z" fill="white"/>
</svg>
