<svg width="130" height="85" viewBox="0 0 130 85" fill="none" xmlns="http://www.w3.org/2000/svg">
<path d="M81.8932 9.04059L83.7786 21.6461L92.9473 17.2577L81.8932 9.04059Z" fill="#FF8229"/>
<path d="M89.9694 5.3463L81.9762 9.1078L92.9473 17.2578L97.3357 15.0648L89.9694 5.3463Z" fill="#FFAB2B"/>
<path d="M49.5621 0H65.5485V7.67975H49.5621L42.4309 4.31006L49.5621 0Z" fill="#5C5B60"/>
<path d="M81.4566 0H65.4702V7.67975H81.4566L88.5878 4.31006L81.4566 0Z" fill="#FFAB2B"/>
<path d="M65.4702 9.48208L65.4702 22.0988L50.2674 9.48205L65.4702 9.48208Z" fill="#4E4E4E"/>
<path d="M48.0732 21.9654L50.1891 9.48207L65.4973 21.9653L48.0732 21.9654Z" fill="#7E7F87"/>
<path d="M49.0919 24.3705L58.339 24.3705L65.3135 57.363L49.0919 24.3705Z" fill="#7E7F87"/>
<path d="M34.5945 18.259L46.5843 24.058L59.9063 51.329L34.5945 18.259Z" fill="#595A57"/>
<path d="M26.9763 28.3504L39.8449 31.0323L59.3577 53.5231L26.9763 28.3504Z" fill="#7E7F87"/>
<path d="M18 47.7014L30.833 43.6492L58.8875 54.0717L18 47.7014Z" fill="#595A57"/>
<path d="M112 47.7014L99.167 43.6492L71.1125 54.0717L112 47.7014Z" fill="#FF8229"/>
<path d="M103.379 28.3504L90.5107 31.0323L70.9979 53.5231L103.379 28.3504Z" fill="#FFD22D"/>
<path d="M95.4849 18.259L83.495 24.058L70.173 51.329L95.4849 18.259Z" fill="#FF8229"/>
<path d="M81.5315 24.3705L72.2845 24.3705L65.31 57.363L81.5315 24.3705Z" fill="#FFD52D"/>
<path d="M72.2096 24.3715L65.3918 24.3715L65.3135 57.2063L72.2096 24.3715Z" fill="#FF8429"/>
<path d="M58.5231 24.3715L65.3409 24.3715L65.4192 57.2063L58.5231 24.3715Z" fill="#57585D"/>
<path d="M65.3405 9.48208L65.3405 22.0988L80.5433 9.48205L65.3405 9.48208Z" fill="#FFD62D"/>
<path d="M82.7375 21.9654L80.5162 9.48207L65.3134 21.9653L82.7375 21.9654Z" fill="#FFA82B"/>
<path d="M48.2346 9.10162L46.3492 21.7072L37.1805 17.3188L48.2346 9.10162Z" fill="#57585D"/>
<path d="M40.1584 5.40709L48.1516 9.16859L37.1805 17.3185L32.7921 15.1256L40.1584 5.40709Z" fill="#7E7F87"/>
<path d="M53.492 13.5H65.077C67.7603 13.5 70.1403 14.0017 72.217 15.005C74.2937 16.0083 75.9037 17.4317 77.047 19.275C78.1903 21.1183 78.762 23.2767 78.762 25.75C78.762 28.2233 78.1903 30.3817 77.047 32.225C75.9037 34.0683 74.2937 35.4917 72.217 36.495C70.1403 37.4983 67.7603 38 65.077 38H53.492V13.5ZM64.797 32.47C66.897 32.47 68.577 31.875 69.837 30.685C71.1203 29.495 71.762 27.85 71.762 25.75C71.762 23.65 71.1203 22.005 69.837 20.815C68.577 19.625 66.897 19.03 64.797 19.03H60.422V32.47H64.797Z" fill="#0E091C"/>
<path d="M2.08625 62.2H10.0303C11.8703 62.2 13.5023 62.544 14.9263 63.232C16.3503 63.92 17.4543 64.896 18.2383 66.16C19.0223 67.424 19.4143 68.904 19.4143 70.6C19.4143 72.296 19.0223 73.776 18.2383 75.04C17.4543 76.304 16.3503 77.28 14.9263 77.968C13.5023 78.656 11.8703 79 10.0303 79H2.08625V62.2ZM9.83825 75.208C11.2783 75.208 12.4303 74.8 13.2943 73.984C14.1743 73.168 14.6143 72.04 14.6143 70.6C14.6143 69.16 14.1743 68.032 13.2943 67.216C12.4303 66.4 11.2783 65.992 9.83825 65.992H6.83825V75.208H9.83825ZM21.9144 62.2H26.6664V79H21.9144V62.2ZM41.3032 75.736H34.1992L32.8792 79H28.0312L35.4472 62.2H40.1272L47.5672 79H42.6232L41.3032 75.736ZM39.9112 72.232L37.7512 66.856L35.5912 72.232H39.9112ZM64.0824 79L64.0344 70.096L59.7144 77.344H57.6024L53.3064 70.336V79H48.9144V62.2H52.8264L58.7304 71.896L64.4904 62.2H68.4024L68.4504 79H64.0824ZM80.2848 79.336C78.5088 79.336 76.9088 78.96 75.4848 78.208C74.0768 77.456 72.9648 76.416 72.1488 75.088C71.3488 73.76 70.9488 72.264 70.9488 70.6C70.9488 68.936 71.3488 67.44 72.1488 66.112C72.9648 64.784 74.0768 63.744 75.4848 62.992C76.9088 62.24 78.5088 61.864 80.2848 61.864C82.0608 61.864 83.6528 62.24 85.0608 62.992C86.4848 63.744 87.5968 64.784 88.3968 66.112C89.2128 67.44 89.6208 68.936 89.6208 70.6C89.6208 72.264 89.2128 73.76 88.3968 75.088C87.5968 76.416 86.4848 77.456 85.0608 78.208C83.6528 78.96 82.0608 79.336 80.2848 79.336ZM80.2848 75.4C81.1328 75.4 81.9008 75.2 82.5888 74.8C83.2768 74.4 83.8208 73.84 84.2208 73.12C84.6208 72.384 84.8208 71.544 84.8208 70.6C84.8208 69.656 84.6208 68.824 84.2208 68.104C83.8208 67.368 83.2768 66.8 82.5888 66.4C81.9008 66 81.1328 65.8 80.2848 65.8C79.4368 65.8 78.6688 66 77.9808 66.4C77.2928 66.8 76.7488 67.368 76.3488 68.104C75.9488 68.824 75.7488 69.656 75.7488 70.6C75.7488 71.544 75.9488 72.384 76.3488 73.12C76.7488 73.84 77.2928 74.4 77.9808 74.8C78.6688 75.2 79.4368 75.4 80.2848 75.4ZM108.094 62.2V79H104.182L96.7657 70.048V79H92.1097V62.2H96.0217L103.438 71.152V62.2H108.094ZM111.446 62.2H119.39C121.23 62.2 122.862 62.544 124.286 63.232C125.71 63.92 126.814 64.896 127.598 66.16C128.382 67.424 128.774 68.904 128.774 70.6C128.774 72.296 128.382 73.776 127.598 75.04C126.814 76.304 125.71 77.28 124.286 77.968C122.862 78.656 121.23 79 119.39 79H111.446V62.2ZM119.198 75.208C120.638 75.208 121.79 74.8 122.654 73.984C123.534 73.168 123.974 72.04 123.974 70.6C123.974 69.16 123.534 68.032 122.654 67.216C121.79 66.4 120.638 65.992 119.198 65.992H116.198V75.208H119.198Z" fill="white"/>
</svg>
