<svg width="20" height="20" viewBox="0 0 20 20" fill="none" xmlns="http://www.w3.org/2000/svg">
<path d="M11.414 10L14.243 12.828C14.4306 13.0156 14.5361 13.2701 14.5361 13.5355C14.5361 13.8009 14.4306 14.0554 14.243 14.243C14.0554 14.4306 13.8009 14.5361 13.5355 14.5361C13.2701 14.5361 13.0156 14.4306 12.828 14.243L10 11.414L7.172 14.243C6.98436 14.4306 6.72986 14.5361 6.4645 14.5361C6.19914 14.5361 5.94464 14.4306 5.757 14.243C5.56936 14.0554 5.46394 13.8009 5.46394 13.5355C5.46394 13.4041 5.48982 13.274 5.54011 13.1526C5.59039 13.0312 5.66409 12.9209 5.757 12.828L8.586 10L5.757 7.172C5.56936 6.98436 5.46394 6.72986 5.46394 6.4645C5.46394 6.33311 5.48982 6.203 5.54011 6.0816C5.59039 5.96021 5.66409 5.84991 5.757 5.757C5.84991 5.66409 5.96021 5.59039 6.0816 5.54011C6.203 5.48982 6.33311 5.46394 6.4645 5.46394C6.72986 5.46394 6.98436 5.56936 7.172 5.757L10 8.586L12.828 5.757C13.0156 5.56936 13.2701 5.46394 13.5355 5.46394C13.8009 5.46394 14.0554 5.56936 14.243 5.757C14.4306 5.94464 14.5361 6.19914 14.5361 6.4645C14.5361 6.72986 14.4306 6.98436 14.243 7.172L11.414 10ZM10 20C4.477 20 0 15.523 0 10C0 4.477 4.477 0 10 0C15.523 0 20 4.477 20 10C20 15.523 15.523 20 10 20ZM10 18C12.1217 18 14.1566 17.1571 15.6569 15.6569C17.1571 14.1566 18 12.1217 18 10C18 7.87827 17.1571 5.84344 15.6569 4.34315C14.1566 2.84285 12.1217 2 10 2C7.87827 2 5.84344 2.84285 4.34315 4.34315C2.84285 5.84344 2 7.87827 2 10C2 12.1217 2.84285 14.1566 4.34315 15.6569C5.84344 17.1571 7.87827 18 10 18Z" fill="white"/>
</svg>
