<svg xmlns="http://www.w3.org/2000/svg" xmlns:xlink="http://www.w3.org/1999/xlink"><symbol viewbox="0 0 15 12" fill="none" id="check" xmlns="http://www.w3.org/2000/svg"><path fill-rule="evenodd" clip-rule="evenodd" d="M12.198.698a1.312 1.312 0 011.874 1.837l-6.986 8.732a1.312 1.312 0 01-1.89.036L.567 6.671a1.313 1.313 0 111.855-1.855L6.087 8.48 12.164.736A.402.402 0 0112.2.698h-.001z" fill="#fff"/></symbol><symbol viewbox="0 0 130 85" fill="none" id="logo" xmlns="http://www.w3.org/2000/svg"><path d="M81.893 9.04l1.886 12.606 9.168-4.388L81.893 9.04z" fill="#FF8229"/><path d="M89.97 5.346l-7.994 3.762 10.971 8.15 4.389-2.193-7.367-9.719z" fill="#FFAB2B"/><path d="M49.562 0H65.55v7.68H49.562l-7.131-3.37L49.562 0z" fill="#5C5B60"/><path d="M81.457 0H65.47v7.68h15.987l7.13-3.37L81.458 0z" fill="#FFAB2B"/><path d="M65.47 9.482V22.1L50.267 9.482H65.47z" fill="#4E4E4E"/><path d="M48.073 21.965L50.19 9.482l15.308 12.483H48.073z" fill="#7E7F87"/><path d="M49.092 24.37h9.247l6.975 32.993-16.222-32.992z" fill="#7E7F87"/><path d="M34.594 18.259l11.99 5.799 13.322 27.271-25.312-33.07z" fill="#595A57"/><path d="M26.976 28.35l12.869 2.682 19.513 22.491L26.976 28.35z" fill="#7E7F87"/><path d="M18 47.701l12.833-4.052 28.055 10.423L18 47.702z" fill="#595A57"/><path d="M112 47.701L99.167 43.65 71.112 54.072 112 47.702z" fill="#FF8229"/><path d="M103.379 28.35l-12.868 2.682-19.513 22.491 32.381-25.173z" fill="#FFD22D"/><path d="M95.485 18.259l-11.99 5.799-13.322 27.271 25.312-33.07z" fill="#FF8229"/><path d="M81.531 24.37h-9.247L65.31 57.364l16.221-32.992z" fill="#FFD52D"/><path d="M72.21 24.372h-6.818l-.078 32.834 6.896-32.835z" fill="#FF8429"/><path d="M58.523 24.372h6.818l.078 32.834-6.896-32.835z" fill="#57585D"/><path d="M65.34 9.482V22.1L80.544 9.482H65.34z" fill="#FFD62D"/><path d="M82.737 21.965l-2.22-12.483-15.204 12.483h17.424z" fill="#FFA82B"/><path d="M48.235 9.102l-1.886 12.605-9.168-4.388 11.054-8.217z" fill="#57585D"/><path d="M40.158 5.407l7.994 3.762-10.971 8.15-4.389-2.193 7.366-9.719z" fill="#7E7F87"/><path d="M53.492 13.5h11.585c2.683 0 5.063.502 7.14 1.505s3.687 2.427 4.83 4.27c1.143 1.843 1.715 4.002 1.715 6.475s-.572 4.632-1.715 6.475c-1.143 1.843-2.753 3.267-4.83 4.27C70.14 37.498 67.76 38 65.077 38H53.492V13.5zm11.305 18.97c2.1 0 3.78-.595 5.04-1.785 1.283-1.19 1.925-2.835 1.925-4.935 0-2.1-.642-3.745-1.925-4.935-1.26-1.19-2.94-1.785-5.04-1.785h-4.375v13.44h4.375z" fill="#0E091C"/><path d="M2.086 62.2h7.944c1.84 0 3.472.344 4.896 1.032 1.424.688 2.528 1.664 3.312 2.928.784 1.264 1.176 2.744 1.176 4.44 0 1.696-.392 3.176-1.176 4.44-.784 1.264-1.888 2.24-3.312 2.928C13.502 78.656 11.87 79 10.03 79H2.086V62.2zm7.752 13.008c1.44 0 2.592-.408 3.456-1.224.88-.816 1.32-1.944 1.32-3.384s-.44-2.568-1.32-3.384c-.864-.816-2.016-1.224-3.456-1.224h-3v9.216h3zM21.914 62.2h4.752V79h-4.752V62.2zm19.39 13.536h-7.105L32.88 79h-4.848l7.416-16.8h4.68l7.44 16.8h-4.944l-1.32-3.264zm-1.393-3.504l-2.16-5.376-2.16 5.376h4.32zM64.082 79l-.048-8.904-4.32 7.248h-2.112l-4.296-7.008V79h-4.392V62.2h3.912l5.904 9.696 5.76-9.696h3.912L68.45 79h-4.368zm16.203.336c-1.776 0-3.376-.376-4.8-1.128-1.408-.752-2.52-1.792-3.336-3.12-.8-1.328-1.2-2.824-1.2-4.488 0-1.664.4-3.16 1.2-4.488.816-1.328 1.928-2.368 3.336-3.12 1.424-.752 3.024-1.128 4.8-1.128 1.776 0 3.368.376 4.776 1.128 1.424.752 2.536 1.792 3.336 3.12.816 1.328 1.224 2.824 1.224 4.488 0 1.664-.408 3.16-1.224 4.488-.8 1.328-1.912 2.368-3.336 3.12-1.408.752-3 1.128-4.776 1.128zm0-3.936c.848 0 1.616-.2 2.304-.6.688-.4 1.232-.96 1.632-1.68.4-.736.6-1.576.6-2.52s-.2-1.776-.6-2.496a4.295 4.295 0 00-1.632-1.704c-.688-.4-1.456-.6-2.304-.6-.848 0-1.616.2-2.304.6-.688.4-1.232.968-1.632 1.704-.4.72-.6 1.552-.6 2.496s.2 1.784.6 2.52c.4.72.944 1.28 1.632 1.68.688.4 1.456.6 2.304.6zm27.809-13.2V79h-3.912l-7.416-8.952V79H92.11V62.2h3.912l7.416 8.952V62.2h4.656zm3.352 0h7.944c1.84 0 3.472.344 4.896 1.032 1.424.688 2.528 1.664 3.312 2.928.784 1.264 1.176 2.744 1.176 4.44 0 1.696-.392 3.176-1.176 4.44-.784 1.264-1.888 2.24-3.312 2.928-1.424.688-3.056 1.032-4.896 1.032h-7.944V62.2zm7.752 13.008c1.44 0 2.592-.408 3.456-1.224.88-.816 1.32-1.944 1.32-3.384s-.44-2.568-1.32-3.384c-.864-.816-2.016-1.224-3.456-1.224h-3v9.216h3z" fill="#fff"/></symbol></svg>